<svg width="343" height="181" fill="none" xmlns="http://www.w3.org/2000/svg"><path d="M129 136c-4.333-.067-7.867-.533-10.6-1.4-2.667-.867-4.8-2.067-6.4-3.6-1.533-1.6-2.6-3.5-3.2-5.7-.533-2.267-.8-4.8-.8-7.6V59.8l14.9-2.4v57.3c0 1.333.1 2.533.3 3.6.2 1.067.567 1.967 1.1 2.7.6.733 1.433 1.333 2.5 1.8 1.067.467 2.5.767 4.3.9L129 136Zm59.841-27.4c0 4.133-.6 7.933-1.8 11.4-1.2 3.4-2.934 6.333-5.2 8.8-2.267 2.4-5 4.267-8.2 5.6-3.134 1.333-6.667 2-10.6 2-3.867 0-7.4-.667-10.6-2-3.134-1.333-5.834-3.2-8.1-5.6-2.267-2.467-4.034-5.4-5.3-8.8-1.267-3.467-1.9-7.267-1.9-11.4s.633-7.9 1.9-11.3c1.333-3.4 3.133-6.3 5.4-8.7 2.333-2.4 5.066-4.267 8.2-5.6 3.2-1.333 6.666-2 10.4-2 3.8 0 7.266.667 10.4 2 3.2 1.333 5.933 3.2 8.2 5.6 2.266 2.4 4.033 5.3 5.3 8.7 1.266 3.4 1.9 7.167 1.9 11.3Zm-15.2 0c0-4.6-.934-8.2-2.8-10.8-1.8-2.667-4.4-4-7.8-4-3.4 0-6.034 1.333-7.9 4-1.867 2.6-2.8 6.2-2.8 10.8 0 4.6.933 8.267 2.8 11 1.866 2.667 4.5 4 7.9 4 3.4 0 6-1.333 7.8-4 1.866-2.733 2.8-6.4 2.8-11Zm39.442-1.6c0 8.333 3.366 12.5 10.1 12.5 1.533 0 2.966-.2 4.3-.6 1.333-.4 2.466-.867 3.4-1.4V93.7c-.734-.133-1.6-.233-2.6-.3-1-.133-2.167-.2-3.5-.2-3.934 0-6.867 1.3-8.8 3.9-1.934 2.6-2.9 5.9-2.9 9.9Zm32.7 21.4c0 8.6-2.2 14.967-6.6 19.1-4.334 4.2-11.067 6.3-20.2 6.3-3.2 0-6.4-.3-9.6-.9-3.2-.533-6.167-1.267-8.9-2.2l2.6-12.5a44.02 44.02 0 0 0 7.3 2.2c2.6.533 5.533.8 8.8.8 4.266 0 7.266-.933 9-2.8 1.8-1.867 2.7-4.267 2.7-7.2v-1.9c-1.6.733-3.267 1.3-5 1.7-1.667.333-3.5.5-5.5.5-7.267 0-12.834-2.133-16.7-6.4-3.867-4.333-5.8-10.367-5.8-18.1 0-3.867.6-7.367 1.8-10.5 1.2-3.2 2.933-5.933 5.2-8.2 2.333-2.267 5.166-4 8.5-5.2 3.333-1.267 7.1-1.9 11.3-1.9 1.8 0 3.633.1 5.5.3 1.933.133 3.833.333 5.7.6 1.866.267 3.633.6 5.3 1 1.733.333 3.266.7 4.6 1.1v44.2Z" fill="#fff"/><rect x="11" y="15" width="332" height="166" rx="20" fill="#404040"/><rect width="332" height="166" rx="20" fill="#000"/><path d="M118 121c-4.333-.067-7.867-.533-10.6-1.4-2.667-.867-4.8-2.067-6.4-3.6-1.533-1.6-2.6-3.5-3.2-5.7-.533-2.267-.8-4.8-.8-7.6V44.8l14.9-2.4v57.3c0 1.333.1 2.533.3 3.6.2 1.067.567 1.967 1.1 2.7.6.733 1.433 1.333 2.5 1.8 1.067.467 2.5.767 4.3.9L118 121Zm59.841-27.4c0 4.133-.6 7.933-1.8 11.4-1.2 3.4-2.934 6.333-5.2 8.8-2.267 2.4-5 4.267-8.2 5.6-3.134 1.333-6.667 2-10.6 2-3.867 0-7.4-.667-10.6-2-3.134-1.333-5.834-3.2-8.1-5.6-2.267-2.467-4.034-5.4-5.3-8.8-1.267-3.467-1.9-7.267-1.9-11.4s.633-7.9 1.9-11.3c1.333-3.4 3.133-6.3 5.4-8.7 2.333-2.4 5.066-4.267 8.2-5.6 3.2-1.333 6.666-2 10.4-2 3.8 0 7.266.667 10.4 2 3.2 1.333 5.933 3.2 8.2 5.6 2.266 2.4 4.033 5.3 5.3 8.7 1.266 3.4 1.9 7.167 1.9 11.3Zm-15.2 0c0-4.6-.934-8.2-2.8-10.8-1.8-2.667-4.4-4-7.8-4-3.4 0-6.034 1.333-7.9 4-1.867 2.6-2.8 6.2-2.8 10.8 0 4.6.933 8.267 2.8 11 1.866 2.667 4.5 4 7.9 4 3.4 0 6-1.333 7.8-4 1.866-2.733 2.8-6.4 2.8-11Zm39.442-1.6c0 8.333 3.366 12.5 10.1 12.5 1.533 0 2.966-.2 4.3-.6 1.333-.4 2.466-.867 3.4-1.4V78.7c-.734-.133-1.6-.233-2.6-.3-1-.133-2.167-.2-3.5-.2-3.934 0-6.867 1.3-8.8 3.9-1.934 2.6-2.9 5.9-2.9 9.9Zm32.7 21.4c0 8.6-2.2 14.967-6.6 19.1-4.334 4.2-11.067 6.3-20.2 6.3-3.2 0-6.4-.3-9.6-.9-3.2-.533-6.167-1.267-8.9-2.2l2.6-12.5a44.02 44.02 0 0 0 7.3 2.2c2.6.533 5.533.8 8.8.8 4.266 0 7.266-.933 9-2.8 1.8-1.867 2.7-4.267 2.7-7.2v-1.9c-1.6.733-3.267 1.3-5 1.7-1.667.333-3.5.5-5.5.5-7.267 0-12.834-2.133-16.7-6.4-3.867-4.333-5.8-10.367-5.8-18.1 0-3.867.6-7.367 1.8-10.5 1.2-3.2 2.933-5.933 5.2-8.2 2.333-2.267 5.166-4 8.5-5.2 3.333-1.267 7.1-1.9 11.3-1.9 1.8 0 3.633.1 5.5.3 1.933.133 3.833.333 5.7.6 1.866.267 3.633.6 5.3 1 1.733.333 3.266.7 4.6 1.1v44.2Z" fill="#fff"/></svg>